<svg width="64" height="64" viewBox="0 0 64 64" fill="none" xmlns="http://www.w3.org/2000/svg">
<path d="M58 36.76C58 38.9943 57.601 41.0505 56.8031 42.9286C56.0051 44.7743 54.9373 46.2476 53.5996 47.3486C52.2618 48.4495 50.7715 49 49.1287 49C47.6736 49 46.3242 48.5629 45.0803 47.6886C43.8365 46.8143 42.8038 45.6324 41.9824 44.1429C41.1845 45.6324 40.1636 46.8143 38.9197 47.6886C37.6758 48.5629 36.3264 49 34.8713 49C33.2519 49 31.7616 48.4495 30.4004 47.3486C29.0627 46.2476 27.9949 44.7743 27.1969 42.9286C26.399 41.0505 26 38.9943 26 36.76V15H29.5204V36.76C29.5204 38.12 29.755 39.3667 30.2244 40.5C30.7173 41.601 31.3627 42.4914 32.1606 43.1714C32.982 43.819 33.8856 44.1429 34.8713 44.1429C35.8335 44.1429 36.7136 43.8352 37.5116 43.22C38.3095 42.5724 38.9432 41.7143 39.4125 40.6457C39.9054 39.5771 40.1753 38.3952 40.2222 37.1V15H43.7778V36.76C43.7778 38.12 44.0125 39.3667 44.4818 40.5C44.9747 41.601 45.6201 42.4914 46.418 43.1714C47.2395 43.819 48.143 44.1429 49.1287 44.1429C50.1144 44.1429 51.0062 43.819 51.8042 43.1714C52.6256 42.4914 53.271 41.601 53.7404 40.5C54.2332 39.3667 54.4796 38.12 54.4796 36.76V15H58V36.76Z" fill="#A64D2E"/>
<path d="M29 39.2857C29 41.0667 28.677 42.7019 28.0309 44.1914C27.3849 45.6486 26.5235 46.8143 25.4468 47.6886C24.37 48.5629 23.1617 49 21.8218 49H0V44.1429H21.8218C22.8267 44.1429 23.6762 43.6733 24.37 42.7343C25.0639 41.7629 25.4109 40.6133 25.4109 39.2857C25.4109 37.9581 25.0639 36.8248 24.37 35.8857C23.6762 34.9143 22.8267 34.4286 21.8218 34.4286H7.17822C5.86221 34.4286 4.65388 33.9914 3.55322 33.1171C2.47649 32.2429 1.6151 31.0771 0.969059 29.62C0.32302 28.1305 0 26.4952 0 24.7143C0 22.9333 0.32302 21.3143 0.969059 19.8571C1.6151 18.3676 2.47649 17.1857 3.55322 16.3114C4.65388 15.4371 5.86221 15 7.17822 15H27.2054V19.8571H7.17822C6.19719 19.8571 5.34777 20.3429 4.62995 21.3143C3.93606 22.2533 3.58911 23.3867 3.58911 24.7143C3.58911 26.0419 3.93606 27.1914 4.62995 28.1629C5.34777 29.1019 6.19719 29.5714 7.17822 29.5714H21.8218C23.1617 29.5714 24.37 30.0086 25.4468 30.8829C26.5235 31.7571 27.3849 32.939 28.0309 34.4286C28.677 35.8857 29 37.5048 29 39.2857Z" fill="#A64D2E"/>
<path d="M55 15H64V20H55V15Z" fill="#A64D2E"/>
</svg>
